<?xml version="1.0" encoding="utf-8"?>
<!-- Generator: Adobe Illustrator 19.0.0, SVG Export Plug-In . SVG Version: 6.00 Build 0)  -->
<svg version="1.1" id="Calque_1" xmlns="http://www.w3.org/2000/svg" xmlns:xlink="http://www.w3.org/1999/xlink" x="0px" y="0px"
	 viewBox="0 0 45 45" enable-background="new 0 0 45 45" xml:space="preserve">
<g id="XMLID_2_">
	<g id="XMLID_8_">
	</g>
	<g id="XMLID_10_">
		<path id="XMLID_5_" fill="none" stroke="#1D1D1B" stroke-width="1.2" stroke-miterlimit="10" d="M110.1845627,11.405736
			l-1.1999969,2.8299999l-0.8899994,1.4099998l-4.4700012,7.0100012L96.454567,33.905735l-7.1699982-11.2499981
			l-4.4400024-6.9700012l-0.0299988-0.0499992l-0.7900009-1.2300005l-0.0100021-0.0199995l-1.2900009-2.9800005
			c-1.9599991-6.4899998,0.9300003-13.6700001,7.1800003-16.8800011c7.0400009-3.6099997,15.6900024-0.8399997,19.3000031,6.21
			C110.9645691,4.1657362,111.2145691,7.9757361,110.1845627,11.405736z"/>
		<path id="XMLID_4_" fill="none" stroke="#1D1D1B" stroke-width="1.2" stroke-miterlimit="10" d="M84.8145676,15.6357365
			c-0.2900009-0.3900003-0.5500031-0.8000002-0.7900009-1.2300005"/>
		<path id="XMLID_3_" fill="none" stroke="#1D1D1B" stroke-width="1.2" stroke-miterlimit="10" d="M82.7245636,11.405736
			c0.25,0.8199997,0.5699997,1.6300001,0.9800034,2.4200001c0.0999985,0.1899996,0.1999969,0.3800001,0.3099976,0.5600004"/>
		<path id="XMLID_1_" fill="none" stroke="#1D1D1B" stroke-width="1.2" stroke-miterlimit="10" d="M110.1845627,11.405736
			c-0.2899933,0.9800005-0.6999969,1.9300003-1.1999969,2.8299999c0,0.0200005-0.0100021,0.0299997-0.0199966,0.0500002
			c-0.2600021,0.4700003-0.5500031,0.9200001-0.8700027,1.3599997"/>
	</g>
</g>
<g id="XMLID_11_">
	<g id="XMLID_15_">
	</g>
	<g id="XMLID_16_">
		<polygon id="XMLID_17_" fill="none" stroke="#FF815A" stroke-miterlimit="10" points="6.0749998,-37.7916985 11.915,-51.9216995 
			3.4549999,-50.7216988 17.4249992,-71.2917023 12.1350002,-56.8316994 21.8449993,-58.3616982 		"/>
	</g>
</g>
<g id="XMLID_18_">
	<g id="XMLID_21_">
		<g id="XMLID_27_">
		</g>
		<g id="XMLID_28_">
			<path id="XMLID_30_" fill="none" stroke="#FF815A" stroke-width="1.2" stroke-miterlimit="10" d="M127.4519653,47.7849998
				c4.6000061-4.5999985,4.6000061-12.0699997,0-16.6700001c-4.5999985-4.6000004-12.0599976-4.6000004-16.6600037,0
				c-4.5999985-4.6000004-12.0599976-4.6000004-16.659996,0s-4.5999985,12.0700016,0,16.6700001"/>
			<polyline id="XMLID_29_" fill="none" stroke="#FF815A" stroke-width="1.2" stroke-miterlimit="10" points="
				94.1319656,47.7849998 110.7919617,64.4449997 127.4519653,47.7849998 			"/>
		</g>
	</g>
</g>
<g id="XMLID_36_">
	<g id="XMLID_31_">
		<g id="XMLID_40_">
		</g>
		<g id="XMLID_41_">
			<path id="XMLID_48_" fill="none" stroke="#FF815A" stroke-width="1.2" stroke-miterlimit="10" d="M36.7599983,13.2200003
				c0,3.7399988-3.0299988,6.7699995-6.7599983,6.7699995c-3.7399998,0-6.7700005-3.0300007-6.7700005-6.7699995
				S26.2600002,6.4499998,30,6.4499998C33.7299995,6.4499998,36.7599983,9.4799995,36.7599983,13.2200003z"/>
			<path id="XMLID_47_" fill="none" stroke="#FF815A" stroke-width="0.75" stroke-linecap="round" stroke-miterlimit="10" d="
				M5.1199999,26.5c0,0,17.2400017-18.7700005,17.2400017-18.7600002C24.2800007,5.6100001,27.1499996,4.21,30.0400009,4.1500001
				c4.5099983-0.0999999,8.4799995,3.2999997,9.0200005,7.7800002c0.2799988,2.29-0.2700005,4.2099991-1.2100029,6.1800003
				L25.8799992,41.25"/>
			
				<line id="XMLID_46_" fill="none" stroke="#FF815A" stroke-width="0.75" stroke-linecap="round" stroke-miterlimit="10" x1="21.0100002" y1="18.6200008" x2="17.7600002" y2="21.3700008"/>
			
				<line id="XMLID_45_" fill="none" stroke="#FF815A" stroke-width="0.75" stroke-linecap="round" stroke-miterlimit="10" x1="21.6399994" y1="22.5" x2="13.8900003" y2="30.25"/>
			
				<line id="XMLID_43_" fill="none" stroke="#FF815A" stroke-width="0.75" stroke-linecap="round" stroke-miterlimit="10" x1="23.2299995" y1="25.75" x2="16.3799992" y2="37.7299995"/>
			
				<line id="XMLID_42_" fill="none" stroke="#FF815A" stroke-width="0.75" stroke-linecap="round" stroke-miterlimit="10" x1="29.5" y1="22.75" x2="24" y2="32.7000008"/>
		</g>
	</g>
</g>
</svg>
