<?xml version="1.0" encoding="utf-8"?>
<!-- Generator: Adobe Illustrator 19.0.0, SVG Export Plug-In . SVG Version: 6.00 Build 0)  -->
<svg version="1.1" id="Calque_1" xmlns="http://www.w3.org/2000/svg" xmlns:xlink="http://www.w3.org/1999/xlink" x="0px" y="0px"
	 viewBox="0 0 45 45" enable-background="new 0 0 45 45" xml:space="preserve">
<g id="XMLID_2_">
	<g id="XMLID_8_">
	</g>
	<g id="XMLID_10_">
		<path id="XMLID_23_" fill="none" stroke="#1D1D1B" stroke-width="1.2" stroke-miterlimit="10" d="M36.2299995,20.4799995
			l-1.2000008,2.8299999l-0.8899994,1.4099998l-4.4699993,7.0100002L22.5,42.9799995l-7.1700001-11.25l-4.4399996-6.9699993
			l-0.0300007-0.0500011l-0.79-1.2299995l-0.0099993-0.0200005l-1.29-2.9799995
			C6.8099999,13.9899998,9.6999998,6.8099999,15.9499998,3.5999999C22.9899998-0.01,31.6399994,2.76,35.25,9.8100004
			C37.0099983,13.2399998,37.2599983,17.0499992,36.2299995,20.4799995z"/>
		<path id="XMLID_21_" fill="none" stroke="#1D1D1B" stroke-width="1.2" stroke-miterlimit="10" d="M10.8599997,24.7099991
			c-0.29-0.3899994-0.5499992-0.7999992-0.79-1.2299995"/>
		<path id="XMLID_13_" fill="none" stroke="#1D1D1B" stroke-width="1.2" stroke-miterlimit="10" d="M8.7700005,20.4799995
			c0.25,0.8199997,0.5699997,1.6300011,0.9799995,2.4200001c0.1000004,0.1900005,0.1999998,0.3800011,0.3100004,0.5599995"/>
		<path id="XMLID_11_" fill="none" stroke="#1D1D1B" stroke-width="1.2" stroke-miterlimit="10" d="M36.2299995,20.4799995
			c-0.2900009,0.9799995-0.7000008,1.9300003-1.2000008,2.8299999c0,0.0200005-0.0099983,0.0300007-0.0200005,0.0500011
			c-0.2599983,0.4699993-0.5499992,0.9200001-0.8699989,1.3599987"/>
	</g>
</g>
</svg>
