<?xml version="1.0" encoding="utf-8"?>
<!-- Generator: Adobe Illustrator 19.0.0, SVG Export Plug-In . SVG Version: 6.00 Build 0)  -->
<svg version="1.1" id="Calque_1" xmlns="http://www.w3.org/2000/svg" xmlns:xlink="http://www.w3.org/1999/xlink" x="0px" y="0px"
	 viewBox="0 0 45 45" enable-background="new 0 0 45 45" xml:space="preserve">
<g id="XMLID_3_">
	<g id="XMLID_1_">
		<g id="XMLID_6_">
			<path id="XMLID_23_" fill="#1D1D1B" d="M31.3799992,23H23v-1h8.3799992c0.2700005,0,0.5,0.2199993,0.5,0.5
				S31.6499996,23,31.3799992,23z"/>
			<path id="XMLID_22_" fill="#1D1D1B" d="M23,13.6199999V22h-1v-8.3800001c0-0.2699995,0.2199993-0.5,0.5-0.5
				S23,13.3500004,23,13.6199999z"/>
			<rect id="XMLID_13_" x="22" y="22" fill="#1D1D1B" width="1" height="1"/>
			<path id="XMLID_12_" fill="#1D1D1B" d="M23,23v8.3799992c0,0.2700005-0.2199993,0.5-0.5,0.5s-0.5-0.2299995-0.5-0.5V23H23z"/>
			<path id="XMLID_11_" fill="#1D1D1B" d="M22,23h-8.3800001c-0.2699995,0-0.5-0.2199993-0.5-0.5s0.2300005-0.5,0.5-0.5H22V23z"/>
			<path id="XMLID_8_" fill="#1D1D1B" d="M2.04,22.5C2.04,33.7799988,11.2200003,42.9599991,22.5,42.9599991
				S42.9599991,33.7799988,42.9599991,22.5S33.7799988,2.04,22.5,2.04S2.04,11.2200003,2.04,22.5z M0.84,22.5
				C0.84,10.5600004,10.5600004,0.84,22.5,0.84S44.1599998,10.5600004,44.1599998,22.5S34.4399986,44.1599998,22.5,44.1599998
				S0.84,34.4399986,0.84,22.5z"/>
		</g>
		<g id="XMLID_7_">
		</g>
	</g>
</g>
</svg>
