<?xml version="1.0" encoding="utf-8"?>
<!-- Generator: Adobe Illustrator 19.0.0, SVG Export Plug-In . SVG Version: 6.00 Build 0)  -->
<svg version="1.1" id="Calque_1" xmlns="http://www.w3.org/2000/svg" xmlns:xlink="http://www.w3.org/1999/xlink" x="0px" y="0px"
	 viewBox="0 0 45 45" enable-background="new 0 0 45 45" xml:space="preserve">
<g id="XMLID_21_">
	<g id="XMLID_26_">
		<path id="XMLID_3_" fill="#1D1D1B" d="M30.4483032,31.4865971c-0.1837921,0.1081123-0.3783951,0.2162247-0.572998,0.3135262
			s-0.3892059,0.194603-0.5838108,0.2702847l-0.2810936-0.5513783c-0.1729794-0.3135262-0.0432434-0.702734,0.2702827-0.8757153
			c0.3243389-0.1621685,0.7135468-0.0324326,0.8757153,0.2810936L30.4483032,31.4865971z"/>
		<path id="XMLID_2_" fill="#1D1D1B" d="M8.133791,24.8160267c-1.9676557-3.8380089-2.3244281-8.2165833-1.0054502-12.314064
			c1.3189783-4.1082926,4.1623487-7.459794,8.0003586-9.4274492c3.827199-1.9676558,8.2057734-2.3352399,12.314065-1.0054505
			c4.1082916,1.3189778,7.4489822,4.1515374,9.4274483,7.9895473c1.9676552,3.8380098,2.3244286,8.2165842,1.0054512,12.314065
			c-1.2541122,3.9028778-3.8812561,7.1138325-7.4273605,9.1139221l-0.2919044-0.5621891
			c-0.1621685-0.3135262-0.5513763-0.4432621-0.8757153-0.2810936c7.2868137-3.7407074,10.1734295-12.70327,6.4327221-19.9900837
			c-2.6271439-5.1245537-7.8381901-8.0652256-13.2330265-8.0652256c-2.2811832,0-4.594799,0.5297534-6.7678699,1.643317
			C8.4365072,7.9720297,5.5498915,16.9345932,9.2905998,24.2214069s12.7140827,10.1734295,19.9900837,6.4219074
			c-0.3135262,0.1729813-0.4432621,0.5621891-0.2702827,0.8757153l0.2810936,0.5513783
			c-2.173069,1.0270729-4.4866867,1.5135803-6.7678699,1.5135803C16.6639023,33.5839882,10.9987841,30.3838444,8.133791,24.8160267z
			"/>
		<path id="XMLID_1_" fill="#1D1D1B" d="M35.0971603,43.3790207l-5.805666-11.3086128
			c0.1946049-0.0756817,0.3892078-0.1729832,0.5838108-0.2702847s0.3892059-0.2054138,0.572998-0.3135262l5.8056679,11.2978039
			c0.1621666,0.3135262,0.0324326,0.7135429-0.2810974,0.8757133c-0.0973015,0.0432434-0.2054138,0.0648689-0.3027153,0.0648689
			C35.432312,43.7249832,35.2052727,43.6060562,35.0971603,43.3790207z"/>
	</g>
	<g id="XMLID_27_">
	</g>
</g>
</svg>
